<svg xmlns="http://www.w3.org/2000/svg" fill="none" viewBox="0 0 80 80"><path fill="#0A558B" d="M75 22.22H62.7a26.44 26.44 0 0 0-7.96-8.7l7.13-7.25L55.72 0l-9.5 9.64a26.14 26.14 0 0 0-12.38 0L24.3 0l-6.16 6.27 7.08 7.24a26.79 26.79 0 0 0-7.92 8.71H5v8.9h9.14c-.21 1.46-.39 2.92-.39 4.44V40H5v8.89h8.75v4.44c0 1.51.18 2.98.4 4.45H5v8.89h12.3A26.17 26.17 0 0 0 40 80c9.71 0 18.16-5.38 22.7-13.33H75v-8.9h-9.14c.22-1.46.39-2.93.39-4.44V48.9H75V40h-8.75v-4.44c0-1.52-.17-2.98-.4-4.45H75v-8.89ZM57.5 40v13.33c0 .98-.13 2.1-.3 3.11l-.44 2.9-1.62 2.88A17.48 17.48 0 0 1 40 71.12a17.57 17.57 0 0 1-15.14-8.9l-1.62-2.84-.43-2.9c-.18-1.01-.31-2.12-.31-3.15V35.56c0-1.03.13-2.14.3-3.12l.44-2.88 1.62-2.9a18.12 18.12 0 0 1 5.3-5.82l2.49-1.73 3.24-.8a16.32 16.32 0 0 1 8.27 0l2.97.71 2.67 1.87a17.21 17.21 0 0 1 5.3 5.82l1.66 2.89.43 2.89c.18.98.31 2.09.31 3.07V40Zm-26.25 8.89h17.5v8.89h-17.5v-8.9Zm0-17.78h17.5V40h-17.5v-8.89Z"/></svg>