<svg xmlns="http://www.w3.org/2000/svg" fill="none" viewBox="0 0 80 80"><path fill="#0A558B" d="m63.708 43.581-12.263-6.172a20.805 20.805 0 0 0 8.024-16.457C59.469 9.41 50.12 0 38.652 0 27.183 0 17.835 9.41 17.835 20.952c0 8.115 4.617 15.162 11.354 18.629V52c-8.137-1.752-7.645-1.676-8.553-1.676-2.006 0-3.899.8-5.337 2.247L10 57.981l19.265 19.39A8.733 8.733 0 0 0 35.51 80h23.845c3.71 0 6.85-2.667 7.456-6.362l3.028-17.943c.833-4.952-1.627-9.828-6.131-12.114Zm-1.325 10.857-3.028 17.943H35.51c-.34 0-.643-.152-.908-.381L20.674 57.98l16.085 3.391V20.952a1.88 1.88 0 0 1 1.893-1.904 1.88 1.88 0 0 1 1.892 1.904V43.81h6.662L60.3 50.4a3.842 3.842 0 0 1 2.082 4.038ZM25.405 20.952c0-7.352 5.942-13.333 13.247-13.333S51.899 13.6 51.899 20.952c0 3.62-1.438 6.896-3.785 9.296v-9.296c0-5.257-4.239-9.523-9.462-9.523s-9.463 4.266-9.463 9.523v9.296a13.241 13.241 0 0 1-3.784-9.296Z"/></svg>