<svg xmlns="http://www.w3.org/2000/svg" width="24" height="24" fill="none"><path fill="#16161A" d="M12.66 24a12.659 12.659 0 0 1-10.278-5.285A12.728 12.728 0 0 1 .164 9.26 12.636 12.636 0 0 1 2.29 4.005 12.592 12.592 0 0 1 6.496.215a1.682 1.682 0 0 1 1.818.112 1.669 1.669 0 0 1 .697 1.683l-.906-.07.857.154a10.966 10.966 0 0 0 1.273 7.497 10.916 10.916 0 0 0 5.838 4.853c1.897.66 3.937.788 5.9.37a1.695 1.695 0 0 1 1.676.636 1.707 1.707 0 0 1 .177 1.788 12.684 12.684 0 0 1-4.648 4.934A12.636 12.636 0 0 1 12.66 24ZM7.248 1.793a10.925 10.925 0 0 0-3.4 3.024 10.96 10.96 0 0 0-1.906 8.708c.309 1.504.93 2.926 1.824 4.174a10.915 10.915 0 0 0 4.189 3.516 10.88 10.88 0 0 0 10.556-.663c1.56-1 2.84-2.38 3.72-4.012-2.24.451-4.56.297-6.722-.447a12.672 12.672 0 0 1-6.767-5.618 12.73 12.73 0 0 1-1.494-8.682Z"/></svg>