<svg xmlns="http://www.w3.org/2000/svg" width="40" height="40" fill="none"><mask id="a" fill="#fff"><path d="M20 0c7.7233 0 14 6.27969 14 14.0467 0 9.1381-10.5454 22.064-13.3316 25.3196-.3564.4165-.9804.4165-1.3368 0C16.5454 36.1107 6 23.1848 6 14.0467 6 6.27969 12.2767 0 20 0Z"/></mask><path fill="#fff" d="M20 0c7.7233 0 14 6.27969 14 14.0467 0 9.1381-10.5454 22.064-13.3316 25.3196-.3564.4165-.9804.4165-1.3368 0C16.5454 36.1107 6 23.1848 6 14.0467 6 6.27969 12.2767 0 20 0Z"/><path fill="#85868C" d="m19.3316 39.3663-.7598.6502.7598-.6502ZM20 1c7.1687 0 13 5.82966 13 13.0467h2C35 5.72971 28.2779-1 20-1v2Zm13 13.0467c0 4.2623-2.4918 9.567-5.4693 14.3362-2.947 4.7204-6.244 8.7229-7.6221 10.3332l1.5196 1.3004c1.408-1.6453 4.7768-5.7335 7.7991-10.5745C32.2191 24.6498 35 18.9225 35 14.0467h-2ZM20.0914 38.7161c-1.3781-1.6103-4.6751-5.6128-7.6221-10.3332C9.49181 23.6137 7 18.309 7 14.0467H5c0 4.8758 2.78091 10.6031 5.7727 15.3953 3.0223 4.841 6.3911 8.9292 7.7991 10.5745l1.5196-1.3004ZM7 14.0467C7 6.82966 12.8313 1 20 1v-2C11.7221-1 5 5.72971 5 14.0467h2Zm12.9086 24.6694c.0153-.0179.0497-.0374.0914-.0374.0417 0 .0761.0195.0914.0374l-1.5196 1.3004c.7556.8829 2.1008.8829 2.8564 0l-1.5196-1.3004Z" mask="url(#a)"/></svg>