<svg xmlns="http://www.w3.org/2000/svg" fill="none" viewBox="0 0 20 20"><mask id="a" fill="#fff"><path d="M10 0c3.8617 0 7 3.13984 7 7.02333 0 4.51157-5.1407 10.86947-6.6113 12.59597-.2074.2435-.57002.2435-.77737 0C8.14072 17.8928 3 11.5349 3 7.02333 3 3.13984 6.13833 0 10 0Z"/></mask><path fill="#85868C" d="m10.3887 19.6193-.7613-.6484.7613.6484Zm-.77737 0 .76127-.6484-.76127.6484ZM10 1c3.3071 0 6 2.68982 6 6.02333h2C18 2.58987 14.4163-1 10-1v2Zm6 6.02333c0 1.95166-1.1432 4.45927-2.6041 6.81547-1.4314 2.3086-3.0483 4.2866-3.7685 5.1321l1.5225 1.2969c.7505-.881 2.4392-2.9452 3.9458-5.3751C16.5728 12.5104 18 9.58321 18 7.02333h-2ZM9.6274 18.9709c.19192-.2253.5533-.2253.7452 0l-1.52254 1.2969c.60662.7122 1.69324.7122 2.29984 0l-1.5225-1.2969Zm.7452 0c-.72018-.8455-2.33711-2.8235-3.76852-5.1321C5.14317 11.4826 4 8.97499 4 7.02333H2c0 2.55988 1.42719 5.48707 2.9043 7.86937 1.5066 2.4299 3.19533 4.4941 3.94576 5.3751l1.52254-1.2969ZM4 7.02333C4 3.68982 6.69292 1 10 1v-2C5.58374-1 2 2.58987 2 7.02333h2Z" mask="url(#a)"/></svg>