<svg fill="none" xmlns="http://www.w3.org/2000/svg" viewBox="0 0 20 20"><mask id="a" fill="#fff"><path d="M10 0c3.86 0 7 3.14 7 7.02 0 4.26-4.58 10.17-6.33 12.27a.86.86 0 0 1-1.34 0C7.58 17.19 3 11.29 3 7.02A7.01 7.01 0 0 1 10 0Z"/></mask><path d="M10 0c3.86 0 7 3.14 7 7.02 0 4.26-4.58 10.17-6.33 12.27a.86.86 0 0 1-1.34 0C7.58 17.19 3 11.29 3 7.02A7.01 7.01 0 0 1 10 0Z" fill="#fff"/><path d="m10.67 19.29.76.64-.76-.64Zm-1.34 0-.76.64.76-.64ZM10 1c3.3 0 6 2.69 6 6.02h2A8.01 8.01 0 0 0 10-1v2Zm6 6.02c0 1.84-1.02 4.18-2.37 6.43a43.55 43.55 0 0 1-3.73 5.2l1.53 1.28c.9-1.07 2.51-3.11 3.92-5.45C16.72 12.2 18 9.45 18 7.02h-2Zm-5.9 11.63a43.55 43.55 0 0 1-3.73-5.2C5.02 11.2 4 8.86 4 7.02H2c0 2.43 1.28 5.17 2.65 7.46a45.54 45.54 0 0 0 3.92 5.45l1.53-1.28ZM4 7.02C4 3.7 6.7 1 10 1v-2C5.58-1 2 2.59 2 7.02h2Zm5.9 11.63a.14.14 0 0 1 .1-.04c.04 0 .08.02.1.04l-1.53 1.28c.75.9 2.11.9 2.86 0L9.9 18.65Z" fill="#85868C" mask="url(#a)"/></svg>