<svg width="40" height="40" viewBox="0 0 40 40" fill="none" xmlns="http://www.w3.org/2000/svg">
<path fill-rule="evenodd" clip-rule="evenodd" d="M34 14.0467C34 6.27969 27.7233 0 20 0C12.2767 0 6 6.27969 6 14.0467C6 23.1848 16.5454 36.1107 19.3316 39.3663C19.688 39.7828 20.312 39.7828 20.6684 39.3663C23.4546 36.1107 34 23.1848 34 14.0467ZM20.0004 19.5999C23.0932 19.5999 25.6004 17.0927 25.6004 13.9999C25.6004 10.9071 23.0932 8.3999 20.0004 8.3999C16.9076 8.3999 14.4004 10.9071 14.4004 13.9999C14.4004 17.0927 16.9076 19.5999 20.0004 19.5999Z" fill="#0A558B"/>
</svg>
