<svg xmlns="http://www.w3.org/2000/svg" fill="none" viewBox="0 0 24 24"><path fill="#000" d="m22.4217 20.325-4.2188-10.2188a1.031 1.031 0 0 0-1.9064 0L12.0778 20.325a1.0298 1.0298 0 0 0-.002.7916 1.032 1.032 0 0 0 .5597.5598 1.029 1.029 0 0 0 .396.078 1.0302 1.0302 0 0 0 .7303-.3056 1.0307 1.0307 0 0 0 .2224-.3368l.8592-2.0808h4.8127l.8592 2.0808a1.0317 1.0317 0 0 0 .9534.638 1.0312 1.0312 0 0 0 .9525-1.425h.0005Zm-6.7266-3.3563 1.5549-3.7664 1.5548 3.7664h-3.1097ZM12.555 16.0744a1.0313 1.0313 0 0 0-.2292-1.4391c-.0094-.007-.7031-.5217-1.7105-1.628 1.8586-2.5162 2.9114-5.3789 3.3408-6.726h1.5127a1.0312 1.0312 0 0 0 0-2.0625h-5.4376v-.9375A1.0308 1.0308 0 0 0 9 2.25a1.0312 1.0312 0 0 0-1.0313 1.0313v.9375H2.5313a1.0312 1.0312 0 1 0 0 2.0625h9.2461c-.4462 1.2632-1.2679 3.2578-2.5214 5.0793-1.4723-1.9537-2.0193-3.218-2.0236-3.2283a1.0312 1.0312 0 0 0-1.9021.797c.0271.0646.682 1.6045 2.4778 3.9341.043.0558.0857.1102.1284.1646-1.8394 2.0789-3.644 3.3684-4.3992 3.7847a1.031 1.031 0 0 0-.4116 1.3992 1.031 1.031 0 0 0 1.3992.4115c.1013-.0553 2.2782-1.2604 4.764-4.012 1.0556 1.1288 1.7812 1.6613 1.8248 1.6922a1.0313 1.0313 0 0 0 1.4414-.2297v.0005Z"/></svg>