<svg xmlns="http://www.w3.org/2000/svg" width="24" height="24" fill="none"><g fill="#E7ECF7" clip-path="url(#a)"><path d="M12.75 1.5h-1.5v3.75h1.5V1.5ZM18.894 4.045l-2.63 2.63 1.061 1.06 2.63-2.63-1.06-1.06ZM22.5 11.25h-3.75v1.5h3.75v-1.5ZM17.325 16.265l-1.06 1.06 2.63 2.63 1.06-1.06-2.63-2.63ZM12.75 18.75h-1.5v3.75h1.5v-3.75ZM6.675 16.265l-2.63 2.63 1.06 1.06 2.63-2.63-1.06-1.06ZM5.25 11.25H1.5v1.5h3.75v-1.5ZM5.106 4.045l-1.06 1.06 2.629 2.63 1.06-1.06-2.63-2.63ZM12 9a3 3 0 1 1 0 6 3 3 0 0 1 0-6Zm0-1.5a4.5 4.5 0 1 0 0 9 4.5 4.5 0 0 0 0-9Z"/></g><defs><clipPath id="a"><path fill="#fff" d="M0 0h24v24H0z"/></clipPath></defs></svg>