<svg width="15" height="15" viewBox="0 0 15 15" fill="none" xmlns="http://www.w3.org/2000/svg">
<g clip-path="url(#clip0_977_911)">
<path d="M2.84116 8.40249L4.86746 6.37619C5.36561 5.87805 6.04124 5.59819 6.74572 5.59819C7.4502 5.59819 8.12582 5.87805 8.62397 6.37619C8.71188 6.4641 8.76126 6.58332 8.76126 6.70765C8.76126 6.83197 8.71188 6.95119 8.62397 7.0391C8.53606 7.12701 8.41683 7.17639 8.29251 7.17639C8.16819 7.17639 8.04896 7.12701 7.96106 7.0391C7.63873 6.71677 7.20156 6.53569 6.74572 6.53569C6.28988 6.53569 5.8527 6.71677 5.53038 7.0391L3.50407 9.0654C3.18175 9.38773 3.00066 9.8249 3.00066 10.2807C3.00066 10.7366 3.18175 11.1738 3.50407 11.4961C3.8264 11.8184 4.26357 11.9995 4.71941 11.9995C5.17525 11.9995 5.61243 11.8184 5.93475 11.4961L7.00116 10.4297C7.08907 10.3418 7.20829 10.2924 7.33261 10.2924C7.45693 10.2924 7.57616 10.3418 7.66407 10.4297C7.75198 10.5176 7.80136 10.6368 7.80136 10.7611C7.80136 10.8855 7.75198 11.0047 7.66407 11.0926L6.59722 12.1594C6.09908 12.6576 5.42345 12.9374 4.71897 12.9374C4.01449 12.9374 3.33886 12.6576 2.84072 12.1594C2.34258 11.6613 2.06272 10.9857 2.06272 10.2812C2.06272 9.5767 2.34258 8.90108 2.84072 8.40293L2.84116 8.40249ZM6.37669 7.96055C6.4646 7.87264 6.58383 7.82326 6.70815 7.82326C6.83247 7.82326 6.9517 7.87264 7.03961 7.96055C7.36186 8.2828 7.7989 8.46388 8.25463 8.46396C8.71037 8.46404 9.14748 8.28313 9.46984 7.96099L11.4966 5.93425C11.8189 5.61192 12 5.17475 12 4.71891C12 4.26307 11.8189 3.8259 11.4966 3.50357C11.1743 3.18124 10.7371 3.00016 10.2812 3.00016C9.82541 3.00016 9.38824 3.18124 9.06591 3.50357L8.18203 4.38745C8.09412 4.47536 7.97489 4.52474 7.85057 4.52474C7.72625 4.52474 7.60702 4.47536 7.51911 4.38745C7.43121 4.29954 7.38182 4.18031 7.38182 4.05599C7.38182 3.93167 7.43121 3.81245 7.51911 3.72454L8.403 2.84065C8.90114 2.34251 9.57677 2.06266 10.2812 2.06266C10.9857 2.06266 11.6614 2.34251 12.1595 2.84065C12.6576 3.3388 12.9375 4.01443 12.9375 4.71891C12.9375 5.42339 12.6576 6.09902 12.1595 6.59716L10.1328 8.6239C9.63461 9.12205 8.95899 9.4019 8.25451 9.4019C7.55002 9.4019 6.8744 9.12205 6.37625 8.6239C6.33269 8.58034 6.29814 8.52861 6.27458 8.47169C6.25102 8.41476 6.23892 8.35375 6.23896 8.29214C6.239 8.23053 6.25119 8.16953 6.27482 8.11263C6.29845 8.05574 6.33307 8.00406 6.37669 7.96055Z" fill="#25638F"/>
</g>
<defs>
<clipPath id="clip0_977_911">
<rect width="15" height="15" fill="white"/>
</clipPath>
</defs>
</svg>
