<svg xmlns="http://www.w3.org/2000/svg" fill="none" viewBox="0 0 80 80"><path fill="#0A558B" d="M40 0C17.92 0 0 17.92 0 40s17.92 40 40 40 40-17.92 40-40S62.08 0 40 0Zm29.84 28.48-11.12 4.6a19.93 19.93 0 0 0-11.8-11.76l4.6-11.12a31.85 31.85 0 0 1 18.32 18.28ZM40 52c-6.64 0-12-5.36-12-12s5.36-12 12-12 12 5.36 12 12-5.36 12-12 12ZM28.52 10.16l4.68 11.12a20 20 0 0 0-11.92 11.88l-11.12-4.64a31.94 31.94 0 0 1 18.36-18.36ZM10.16 51.48l11.12-4.6a19.87 19.87 0 0 0 11.88 11.84l-4.68 11.12a31.98 31.98 0 0 1-18.32-18.36Zm41.36 18.36-4.6-11.12a19.91 19.91 0 0 0 11.8-11.88l11.12 4.68a32.03 32.03 0 0 1-18.32 18.32Z"/></svg>